<?xml version="1.0" encoding="utf-8"?>
<!DOCTYPE svg PUBLIC "-//W3C//DTD SVG 20010904//EN" "http://www.w3.org/TR/2001/REC-SVG-20010904/DTD/svg10.dtd">
<svg version="1.0" xmlns="http://www.w3.org/2000/svg" width="800px" height="800px" viewBox="0 0 800 800" preserveAspectRatio="xMidYMid meet">
 <g fill="#000000">
  <path d="M53 394.5 l0 -345.5 345.5 0 345.5 0 0 345.5 0 345.5 -345.5 0 -345.5 0 0 -345.5z m635 -1.5 l0 -290 -290 0 -290 0 0 290 0 290 290 0 290 0 0 -290z"/>
  <path d="M241 393 l0 -155 155 0 155 0 0 155 0 155 -155 0 -155 0 0 -155z"/>
  <path d="M564 178 l0 -36 36 0 36 0 0 36 0 36 -36 0 -36 0 0 -36z"/>
 </g>
 <g fill="#ffffff">
  <path d="M105 393 l0 -293 293 0 293 0 0 293 0 293 -293 0 -293 0 0 -293z m443 0 l0 -152 -152 0 -152 0 0 152 0 152 152 0 152 0 0 -152z m85 -215 l0 -33 -33 0 -33 0 0 33 0 33 33 0 33 0 0 -33z"/>
 </g>
</svg>